<?xml version="1.0" encoding="UTF-8"?>
<svg id="Calque_1" data-name="Calque 1" xmlns="http://www.w3.org/2000/svg" viewBox="0 0 184.63 207.82">
  <defs>
    <style>
      .cls-1 {
        fill: #312783;
        stroke: #312783;
      }

      .cls-1, .cls-2, .cls-3, .cls-4 {
        stroke-miterlimit: 10;
      }

      .cls-2 {
        stroke: #fff;
        stroke-width: 12px;
      }

      .cls-2, .cls-3, .cls-4 {
        fill: none;
      }

      .cls-3 {
        stroke: #2d2e83;
      }

      .cls-3, .cls-4 {
        stroke-width: 20px;
      }

      .cls-4 {
        stroke: #e6332a;
      }
    </style>
  </defs>
  <path class="cls-4" d="M130.43,64.71c-7.86-3.94-37.63-21.53-64.28-6.81-14.92,8.24-39.54,30.51-39.54,30.51"/>
  <path class="cls-4" d="M100.47,123.34C74.51,177.35,2.8,198.22,2.79,198.22h0"/>
  <path class="cls-2" d="M72.11,138.74c14.43-.35,28.86-.69,43.29-1.04"/>
  <path class="cls-2" d="M110.01,81.21c6.82-10.19,13.64-22.53,20.46-32.72"/>
  <path class="cls-1" d="M175.75,27.59c0,14.96-12.13,27.09-27.09,27.09-6.03,0-13.28-3-18.4-7.44-1.84-1.6-2.99-3.02-3.25-3.36,0,0-5.75-6.92-5.44-16.29.4-12.26,10.73-27.09,27.09-27.09,14.96,0,27.09,12.13,27.09,27.09Z"/>
  <path class="cls-3" d="M180.34,100.22l-48,2.02s-.34-38.52-1.56-38.43-36.57,64.69-36.57,64.69l70.59-2.26c-15.79,22.23-31.58,44.46-47.37,66.69"/>
</svg>